<?xml version="1.0" standalone="no"?>
<!DOCTYPE svg PUBLIC "-//W3C//DTD SVG 20010904//EN"
 "http://www.w3.org/TR/2001/REC-SVG-20010904/DTD/svg10.dtd">
<svg version="1.0" xmlns="http://www.w3.org/2000/svg"
 width="256.000000pt" height="256.000000pt" viewBox="0 0 256.000000 256.000000"
 preserveAspectRatio="xMidYMid meet">
<metadata>
Created by potrace 1.14, written by Peter Selinger 2001-2017
</metadata>
<g transform="translate(0.000000,256.000000) scale(0.100000,-0.100000)"
fill="#000000" stroke="none">
<path d="M0 1280 l0 -1280 1280 0 1280 0 0 1280 0 1280 -1280 0 -1280 0 0
-1280z m2094 948 c53 -16 118 -81 134 -134 17 -59 17 -1569 0 -1628 -16 -53
-81 -118 -134 -134 -59 -17 -1569 -17 -1628 0 -53 16 -118 81 -134 134 -17 59
-17 1569 0 1628 15 50 80 118 128 133 53 17 1578 17 1634 1z"/>
<path d="M1445 1860 l-59 -60 74 -75 74 -75 -72 -73 -72 -72 57 -58 58 -57 72
72 73 72 75 -74 75 -75 60 60 60 60 -75 75 -75 75 75 75 75 76 -58 57 -58 57
-74 -75 -75 -75 -75 75 -76 75 -59 -60z"/>
<path d="M660 1660 l0 -80 265 0 265 0 0 80 0 80 -265 0 -265 0 0 -80z"/>
<path d="M857 1223 c-4 -3 -7 -53 -7 -110 l0 -103 -105 0 -105 0 0 -80 0 -80
105 0 105 0 0 -105 0 -105 80 0 80 0 0 105 0 104 108 3 107 3 3 77 3 77 -108
3 -108 3 -3 108 -3 107 -73 0 c-40 0 -76 -3 -79 -7z"/>
<path d="M1390 1060 l0 -80 265 0 265 0 0 80 0 80 -265 0 -265 0 0 -80z"/>
<path d="M1390 810 l0 -80 265 0 265 0 0 80 0 80 -265 0 -265 0 0 -80z"/>
</g>
</svg>
